<svg viewBox="0 0 70 49" xmlns="http://www.w3.org/2000/svg">
    <path d="M65.903 1a3 3 0 0 0-3 3v14.094c0 5.38-4.377 9.757-9.757 9.757l-41.159-.007 9.195-8.037a3 3 0 1 0-3.948-4.517L2.024 28.585c-.063.054-.115.115-.17.173-.026.026-.056.045-.08.072-.012.012-.018.026-.029.038-.12.137-.229.281-.32.435-.02.032-.032.065-.05.097a3.089 3.089 0 0 0-.178.383c-.022.058-.04.116-.058.174a3.043 3.043 0 0 0-.086.354c-.01.055-.022.109-.029.164a3.03 3.03 0 0 0-.022.495v.025c.008.174.035.347.075.518.012.056.031.109.047.163.021.074.037.149.064.222.016.041.038.078.055.118a2.872 2.872 0 0 0 .274.5c.03.045.056.09.09.134.108.144.228.278.36.399.006.006.01.013.016.018l15.212 13.774c.574.52 1.294.777 2.012.777a3 3 0 0 0 2.015-5.224l-9.443-8.55 41.367.007c8.69 0 15.757-7.069 15.757-15.757V4a3 3 0 0 0-3-3" fill="#252728" />
</svg>
